<?xml version="1.0" standalone="no"?>
<!DOCTYPE svg PUBLIC "-//W3C//DTD SVG 20010904//EN"
 "http://www.w3.org/TR/2001/REC-SVG-20010904/DTD/svg10.dtd">
<svg version="1.0" xmlns="http://www.w3.org/2000/svg"
 width="512.000000pt" height="512.000000pt" viewBox="0 0 512.000000 512.000000"
 preserveAspectRatio="xMidYMid meet">

<g transform="translate(0.000000,512.000000) scale(0.100000,-0.100000)"
fill="#000000" stroke="none">
<path d="M2426 4900 c-570 -72 -1003 -469 -1123 -1030 -25 -116 -24 -371 1
-488 73 -342 265 -630 542 -815 222 -148 450 -217 714 -217 265 0 491 69 714
217 277 185 469 473 542 815 25 117 26 372 1 488 -56 263 -168 472 -352 656
-189 191 -410 308 -673 358 -104 20 -276 27 -366 16z"/>
<path d="M1766 1909 c-247 -37 -508 -183 -660 -368 -115 -141 -192 -297 -231
-472 -13 -55 -18 -145 -22 -356 l-5 -283 1711 0 1711 0 0 220 c0 122 -5 264
-11 317 -42 376 -270 693 -615 854 -46 22 -129 52 -182 67 l-97 26 -770 2
c-423 1 -797 -2 -829 -7z"/>
</g>
</svg>
