<?xml version="1.0" standalone="no"?>
<!DOCTYPE svg PUBLIC "-//W3C//DTD SVG 20010904//EN"
 "http://www.w3.org/TR/2001/REC-SVG-20010904/DTD/svg10.dtd">
<svg version="1.0" xmlns="http://www.w3.org/2000/svg"
 width="512.000000pt" height="512.000000pt" viewBox="0 0 512.000000 512.000000"
 preserveAspectRatio="xMidYMid meet">

<g transform="translate(0.000000,512.000000) scale(0.100000,-0.100000)"
fill="#000000" stroke="none">
<path d="M1626 4362 c-70 -185 -137 -346 -147 -357 -19 -19 -36 -20 -667 -25
-728 -6 -675 0 -750 -85 -21 -24 -45 -64 -51 -87 -9 -32 -11 -443 -9 -1628 l3
-1585 22 -40 c25 -47 64 -85 113 -111 34 -18 112 -19 2420 -19 2308 0 2386 1
2420 19 49 26 88 64 113 111 l22 40 3 1585 c2 1185 0 1596 -9 1628 -6 23 -30
63 -51 87 -75 85 -22 79 -750 85 -631 5 -648 6 -667 25 -10 11 -77 172 -147
357 l-129 338 -805 0 -805 0 -129 -338z m1202 -633 c541 -104 976 -531 1097
-1079 26 -117 31 -385 11 -512 -32 -194 -117 -403 -229 -567 -72 -105 -231
-267 -335 -341 -349 -249 -792 -324 -1207 -205 -120 34 -310 128 -417 205
-236 169 -427 433 -516 710 -79 249 -84 551 -12 807 86 310 308 607 585 785
306 197 662 266 1023 197z"/>
<path d="M2366 3384 c-571 -113 -940 -663 -825 -1227 63 -309 268 -581 544
-720 308 -154 641 -155 946 -2 265 133 468 388 540 680 29 116 36 306 15 423
-75 428 -408 765 -839 847 -97 18 -287 18 -381 -1z"/>
</g>
</svg>
