<?xml version="1.0" standalone="no"?>
<!DOCTYPE svg PUBLIC "-//W3C//DTD SVG 20010904//EN"
 "http://www.w3.org/TR/2001/REC-SVG-20010904/DTD/svg10.dtd">
<svg version="1.0" xmlns="http://www.w3.org/2000/svg"
 width="512.000000pt" height="512.000000pt" viewBox="0 0 512.000000 512.000000"
 preserveAspectRatio="xMidYMid meet">

<g transform="translate(0.000000,512.000000) scale(0.100000,-0.100000)"
fill="#000000" stroke="none">
<path d="M1343 4196 c-172 -42 -321 -186 -365 -355 -15 -61 -17 -165 -17
-1281 0 -1116 2 -1220 17 -1281 46 -173 202 -321 380 -358 33 -7 198 -11 446
-11 448 0 455 1 531 77 45 44 75 114 75 173 0 57 -30 128 -73 173 -72 74 -91
77 -462 77 -319 0 -322 0 -356 23 -18 12 -39 34 -46 47 -18 36 -18 2124 0
2160 7 13 28 35 46 47 34 23 37 23 356 23 370 0 386 3 460 77 45 44 75 114 75
173 0 57 -30 128 -73 173 -74 76 -82 77 -541 76 -284 0 -416 -4 -453 -13z"/>
<path d="M2905 3686 c-97 -45 -152 -139 -142 -244 2 -33 13 -74 22 -93 9 -19
130 -148 268 -286 l251 -253 -666 0 c-721 0 -709 1 -782 -55 -18 -14 -46 -49
-62 -77 -75 -136 -6 -305 145 -356 24 -9 221 -12 700 -12 l665 0 -251 -252
c-138 -139 -259 -268 -268 -287 -27 -53 -31 -142 -10 -197 53 -138 209 -202
340 -140 39 19 152 126 527 502 515 517 518 520 518 624 0 104 -3 107 -518
624 -375 376 -488 483 -527 502 -67 32 -143 32 -210 0z"/>
</g>
</svg>
